<svg width="20" height="20" viewBox="0 0 20 20" fill="none" xmlns="http://www.w3.org/2000/svg">
<path d="M12.3644 11.1679H11.7342L11.5109 10.9525C12.4681 9.83571 12.9627 8.31209 12.6915 6.69275C12.3165 4.47512 10.4659 2.70421 8.23229 2.43299C4.85799 2.01819 2.01816 4.85802 2.43296 8.23232C2.70418 10.4659 4.47509 12.3166 6.69272 12.6915C8.31206 12.9627 9.83568 12.4681 10.9525 11.5109L11.1678 11.7342V12.3644L14.5581 15.7547C14.8852 16.0817 15.4196 16.0817 15.7467 15.7547C16.0737 15.4276 16.0737 14.8932 15.7467 14.5661L12.3644 11.1679ZM7.57817 11.1679C5.59188 11.1679 3.98849 9.56449 3.98849 7.5782C3.98849 5.59191 5.59188 3.98852 7.57817 3.98852C9.56446 3.98852 11.1678 5.59191 11.1678 7.5782C11.1678 9.56449 9.56446 11.1679 7.57817 11.1679Z" fill="#F9F9FA"/>
</svg>
